<?xml version="1.0" encoding="UTF-8"?>
<svg id="Layer_1" xmlns="http://www.w3.org/2000/svg" version="1.1" viewBox="0 0 512 512">
  <!-- Generator: Adobe Illustrator 29.7.0, SVG Export Plug-In . SVG Version: 2.1.1 Build 138)  -->
  <path d="M233.55,358.16c-9.81,77.15-92.31,117.18-157.67,76.1-64.2-40.35-60.87-138.73,1.39-179.48,48.74-31.9,106.42-16.27,139.62,29.79l17.65-25.07c-46.54-58.21-128.67-68.66-185.92-19.68-70.68,60.47-63,176.85,18.33,223.32,78.84,45.05,176.12-2.97,194.6-91.68l-1.69-3.41-26.3-9.89Z"/>
  <path d="M382.61,344.67c-14.25-2.99-63.69-14.63-74.54-13.47-2.55.27-3.1-.77-2.61,2.69l13.08,29.68c62.98,14.66,109.07,40.92,35.14,91.52l-43.01,25.06h167.45c89.68-96.41-20.81-119.78-95.52-135.48Z"/>
  <path d="M21.84,205.27c63.65-12.54,116.97-38.48,186.26-33.65,75.23,5.24,77.98,42.74,39.14,99.21-32.81,47.71-81.82,86.22-122.41,126.79,16.25-8,32.1-17.88,47.19-27.94,14.38-9.58,28.39-19.8,41.7-30.88l44.95,3.52,56.39,101.97c1.29,1.95,2.76,2.07,4.86,1.51,2.59-.68,39.86-28.39,41.65-31.08,1.01-1.51,2.38-1.91,1.7-4.5-14.31-11.39-24.77,1.85-40.23,1.67-5.42-16.32-11.9-32.46-18.56-48.29-4.74-11.27-16.64-44.66-22.78-52.03-5.21-6.25-19.31-7.44-27.12-7.23l33.06-51.37c37.63-84.06-30.24-111.33-100.55-106.47-59.31,4.1-118.96,29.84-170.96,57.41-.43,3.2,3.89,1.72,5.71,1.36Z"/>
  <path d="M300.17,173.41c1.02,2.7,2.15,5.23,4.71,6.82,9.3,5.77,37.73,11.32,50.55,16.45,7.45,2.98,29.92,10.62,28.99,20.56-3.13,9.12-15.12,11.56-23.3,14.02-17.64,5.31-37.17,8.05-55.4,10.6l-7.3,19.41c37.78-7.51,84.79-9.46,120.13-25.07,40.09-17.7,8.25-34.37-14.97-43.96-14.66-6.06-61.16-22.68-74.94-23.93-6.25-.57-19.79,8.56-28.48,5.08Z"/>
  <path d="M297.95,87.72c-35.32,6.26-35.39,65.86,1.49,71.16,57.25,8.24,55.26-81.22-1.49-71.16Z"/>
  <path d="M180.06,133.92h32.44c-2.84-3.73-7.68-5.37-11.44-8.93-19.56-18.56,5.92-30.01,21.33-37.46,18.51-8.95,34.37-12.25,52.15-16.61,19.41-4.75,40.4-11.41,40.59-35.68l-7.93-3.58c-3.4,19.14-11.02,22.62-35.19,28.39-5.64,3.39-10.46,3.17-19.15,5.78.02.3,0-.44-.04-.1-17.85,4.12-77.24,24.04-81.98,42.6-1.88,7.37,1.78,23.45,9.21,25.58Z"/>
  <path d="M200.22,288.19c2.59-2.95-12.98-18.25-17.11-19.32-10.6-2.76-52.82,12.82-59.78,22.29-17.87,24.29,34.74,37.98,49.67,41.92l25.44-24.25c-.02-1.8-29.75-13.56,1.79-20.64Z"/>
</svg>